<svg t="1741248464477" class="icon" viewBox="0 0 1024 1024" version="1.1" xmlns="http://www.w3.org/2000/svg" p-id="4083" width="200" height="200"><path d="M714.258193 0H309.736609C279.390863 0 254.700508 24.690355 254.700508 55.036102v404.521583C254.700508 489.913827 279.390863 514.598985 309.736609 514.598985h236.26331a16.066924 16.066924 0 1 0 0-32.139046H309.736609a22.923046 22.923046 0 0 1-22.897056-22.902254V55.036102a22.923046 22.923046 0 0 1 22.897056-22.897056h404.521584a22.923046 22.923046 0 0 1 22.897056 22.897056V418.12467c0 32.679635-5.587817 52.395533-16.607513 58.601909-11.960528 6.736569-29.176203-3.690558-34.852386-7.131615-16.539939-11.54469-80.630904-70.198579-113.908304-101.173279a121.694863 121.694863 0 0 0 23.843086-72.522071c0-67.50603-54.724223-122.235452-122.230254-122.235452S351.174822 228.398782 351.174822 295.899614c0 67.50603 54.724223 122.225056 122.230254 122.225056a121.700061 121.700061 0 0 0 76.077482-26.561624c14.980548 13.946152 96.172832 89.275127 117.806782 104.375228l0.862863 0.602965 0.883655 0.53539c4.345503 2.630173 13.374376 8.108832 24.716345 11.383554 15.541929 4.496244 30.262579 3.201949 42.571371-3.732142 11.965726-6.736569 20.729503-18.068142 26.062619-33.682843 4.657381-13.61868 6.918497-30.933117 6.918497-52.91533V55.036102C769.299492 24.690355 744.609137 0 714.258193 0z m-238.638782 384.649746c-24.305706 0-47.145584-9.460305-64.324873-26.639594A90.356305 90.356305 0 0 1 384.649746 293.685279c0-24.29531 9.460305-47.140386 26.644792-64.319675A90.371898 90.371898 0 0 1 475.614213 202.720812c24.300508 0 47.140386 9.460305 64.319675 26.644792A90.382294 90.382294 0 0 1 566.57868 293.685279c0 24.29531-9.460305 47.140386-26.644792 64.324873A90.377096 90.377096 0 0 1 475.614213 384.649746zM638.414619 171.532995h-39.712487C589.574497 171.532995 582.172589 164.552122 582.172589 155.939086c0-8.607838 7.401909-15.593909 16.529543-15.593908h39.712487c9.127635 0 16.529543 6.986071 16.529543 15.593908 0 8.613036-7.401909 15.593909-16.529543 15.593909z m0.369056-77.969543H380.023553C371.093442 93.563452 363.857868 86.582579 363.857868 77.969543c0-8.607838 7.235574-15.593909 16.160487-15.593908H638.778477c8.924914 0 16.160487 6.986071 16.160487 15.593908 0 8.613036-7.235574 15.593909-16.160487 15.593909z" fill="#bfbfbf" p-id="4084"></path><path d="M486.665096 271.578315c2.983635-3.648975 4.439066-7.485076 4.439066-11.471919 0-5.437076-1.523005-9.611046-4.29872-12.542701-2.832893-2.832893-7.069239-4.298721-12.958538-4.29872-7.646213 0-12.397157 2.053198-15.365198 6.414294-2.734132 3.700954-4.179168 9.444711-4.179168 17.288447v5.197969h-34.09868v-5.197969c0-16.867411 4.953665-30.231391 15.07931-39.894417 9.985299-9.756589 23.370071-14.580305 40.019167-14.580304 14.907777 0 27.091817 4.04402 36.276629 12.303594 9.491492 8.306355 14.247635 19.726294 14.247635 33.854375 0 11.305584-2.947249 20.984203-9.028873 29.051452-2.209137 2.45864-8.768975 8.503878-18.416406 16.945381a27.029442 27.029442 0 0 0-6.996467 8.722193 24.196548 24.196548 0 0 0-2.567797 11.191228V332.670051h-34.306599v-8.108833c0-8.961299 1.497015-16.513949 4.672974-22.631959 3.056406-6.346721 11.284792-15.28203 25.288122-27.798741l2.193543-2.552203zM471.559797 337.660102c5.884102 0 11.102863 1.949239 15.318416 5.889299 3.971249 3.971249 6.097218 9.070457 6.097218 14.902579 0 5.977665-2.235127 11.31598-6.435086 15.235248-4.106396 3.836102-9.132832 5.764548-14.980548 5.764549-5.769746 0-10.801381-2.068792-14.980548-5.972467-4.17397-3.893279-6.227168-8.992487-6.227168-15.02733 0-6.029645 2.053198-11.134051 6.227168-15.02733 4.106396-3.836102 9.132832-5.764548 14.980548-5.764548z" fill="#bfbfbf" p-id="4085"></path><path d="M369.783553 974.827208h-24.794314V1018.80203H272.009746v-43.974822H134.003655V901.847716l110.404873-216.131574h84.207107L218.210761 901.847716h53.798985v-43.974823h72.979493v43.974823h24.794314v72.979492z m249.346599-57.073705c0 68.769137-51.927716 103.855431-107.130152 103.855431s-107.130152-35.086294-107.130152-103.855431v-130.988833c0-68.769137 51.927716-103.855431 107.130152-103.855431s107.130152 35.086294 107.130152 103.855431v130.988833z m-76.72203 0.467817v-131.45665c0-23.390863-14.034518-34.618477-30.408122-34.618477-16.373604 0-30.408122 11.227614-30.408122 34.618477v131.45665c0 23.390863 14.034518 34.15066 30.408122 34.15066 16.373604 0 30.408122-10.759797 30.408122-34.15066z m347.588223 56.605888h-24.794315V1018.80203h-72.979492v-43.974822h-138.006091V901.847716l110.404873-216.131574h84.207106l-110.404873 216.131574h53.798985v-43.974823h72.979492v43.974823h24.794315v72.979492z" fill="#bfbfbf" p-id="4086"></path></svg>